<?xml version="1.0" encoding="iso-8859-1"?>
<!-- Uploaded to: SVG Repo, www.svgrepo.com, Generator: SVG Repo Mixer Tools -->
<svg xmlns="http://www.w3.org/2000/svg" xmlns:xlink="http://www.w3.org/1999/xlink" version="1.1" id="Layer_1"  viewBox="0 0 453.071 453.071" xml:space="preserve" width="512" height="512">
<g>
	<path style="fill:#C3C6C8;" d="M424.565,291.618h-40V106.344H68.508v185.273h-40V86.344c0-11.046,8.954-20,20-20h356.058   c11.046,0,20,8.954,20,20V291.618z"/>
	<path style="fill:#C3C6C8;" d="M424.565,291.618h-40V106.344H68.508v185.273h-40V86.344c0-11.046,8.954-20,20-20h356.058   c11.046,0,20,8.954,20,20V291.618z"/>
	<rect x="7.5" y="287.618" style="fill:#8BDC65;" width="438.071" height="99.109"/>
	<g>
		<g>
			<g>
				<rect x="68.479" y="250.115" style="fill:#454F58;" width="315.115" height="15"/>
				<rect x="68.479" y="207.478" style="fill:#454F58;" width="315.115" height="15"/>
				<rect x="68.479" y="164.841" style="fill:#454F58;" width="315.115" height="15"/>
				<rect x="68.479" y="122.205" style="fill:#454F58;" width="315.115" height="15"/>
			</g>
			<g>
				<rect x="346.947" y="106.344" style="fill:#454F58;" width="15" height="185.273"/>
				<rect x="304.31" y="106.344" style="fill:#454F58;" width="15" height="185.273"/>
				<rect x="261.674" y="106.344" style="fill:#454F58;" width="15" height="185.273"/>
				<rect x="219.037" y="106.344" style="fill:#454F58;" width="15" height="185.273"/>
				<rect x="176.4" y="106.344" style="fill:#454F58;" width="15" height="185.273"/>
				<rect x="133.764" y="106.344" style="fill:#454F58;" width="15" height="185.273"/>
				<rect x="91.127" y="106.344" style="fill:#454F58;" width="15" height="185.273"/>
			</g>
		</g>
		<path style="fill:#FFFFFF;" d="M405.918,350.864H47.153c-4.143,0-7.5-3.358-7.5-7.5v-55.746h15v48.246h343.765v-48.246h15v55.746    C413.418,347.506,410.06,350.864,405.918,350.864z"/>
		<path d="M445.571,280.118h-13.506V86.344c0-15.164-12.337-27.5-27.5-27.5H48.508c-15.163,0-27.5,12.336-27.5,27.5v193.773H7.5    c-4.143,0-7.5,3.358-7.5,7.5v99.109c0,4.142,3.357,7.5,7.5,7.5h438.071c4.143,0,7.5-3.358,7.5-7.5v-99.109    C453.071,283.476,449.714,280.118,445.571,280.118z M36.008,86.344c0-6.893,5.607-12.5,12.5-12.5h356.058    c6.893,0,12.5,5.607,12.5,12.5v193.773h-25V106.344c0-4.142-3.357-7.5-7.5-7.5H68.508c-4.143,0-7.5,3.358-7.5,7.5v173.773h-25    V86.344z M377.065,113.844v166.273H76.008V113.844H377.065z M438.071,379.227H15v-84.109h423.071V379.227z"/>
	</g>
</g>















</svg>