<?xml version="1.0" encoding="iso-8859-1"?>
<!-- Uploaded to: SVG Repo, www.svgrepo.com, Generator: SVG Repo Mixer Tools -->
<svg version="1.1" id="Layer_1" xmlns="http://www.w3.org/2000/svg" xmlns:xlink="http://www.w3.org/1999/xlink" 
	 viewBox="0 0 512 512" xml:space="preserve">
<path style="fill:#CACACA;" d="M138.515,179.1c-32.456-1.636-36.56,30.963-36.56,30.963v164.984l68.319,65.194v-55.147v-53.32"/>
<path style="fill:#F6F6F6;" d="M170.972,440.908l-69.016-65.862V210.062c0,0,4.104-32.599,36.56-30.963
	c32.456,1.635,32.456,28.248,32.456,28.248V58.289c0-16.481,13.447-29.964,29.883-29.964l0,0c16.436,0,29.883,13.485,29.883,29.964
	V38.313c0-16.481,13.448-29.965,29.884-29.965l0,0c16.436,0,29.883,13.486,29.883,29.965v19.976
	c0-16.481,13.447-29.964,29.883-29.964l0,0c16.436,0,29.883,13.485,29.883,29.964v79.903c0-16.481,13.448-29.965,29.883-29.965
	c16.437,0,29.884,13.485,29.884,29.965v242.031l-60.563,60.67v62.759H170.972V440.908z"/>
<polygon style="fill:#CACACA;" points="170.274,440.241 170.972,440.908 170.972,503.652 349.478,503.652 349.478,440.893 
	350.129,440.241 "/>
<rect x="269.255" y="259.718" style="fill:#FF3100;" width="140.778" height="67.597"/>
<polygon style="fill:#FE633D;" points="269.259,400.671 269.259,327.317 342.483,327.317 "/>
<path style="fill:#3C3A41;" d="M380.157,99.878c-7.982,0-15.399,2.463-21.536,6.672v-48.26c0-21.124-17.15-38.312-38.231-38.312
	c-0.607,0-1.21,0.018-1.81,0.046c-0.19,0.009-0.38,0.024-0.57,0.036c-0.413,0.026-0.824,0.056-1.232,0.093
	c-0.215,0.02-0.43,0.043-0.644,0.068c-0.392,0.043-0.781,0.093-1.17,0.149c-0.205,0.029-0.41,0.058-0.614,0.09
	c-0.437,0.07-0.873,0.149-1.305,0.234c-0.144,0.028-0.288,0.052-0.431,0.081c-0.571,0.119-1.138,0.25-1.7,0.394
	c-0.131,0.033-0.26,0.072-0.391,0.108c-0.431,0.116-0.859,0.236-1.284,0.366c-0.194,0.059-0.385,0.122-0.577,0.185
	c-0.365,0.118-0.728,0.24-1.089,0.37c-0.196,0.07-0.392,0.141-0.587,0.215c-0.37,0.139-0.736,0.285-1.1,0.435
	c-0.169,0.07-0.341,0.138-0.509,0.209c-0.494,0.211-0.983,0.433-1.465,0.664c-0.031,0.016-0.063,0.029-0.095,0.043
	c-0.513,0.248-1.02,0.511-1.519,0.781c-0.154,0.082-0.303,0.17-0.455,0.255c-0.347,0.194-0.691,0.391-1.032,0.595
	c-0.176,0.105-0.349,0.213-0.523,0.321c-0.319,0.199-0.637,0.403-0.949,0.611c-0.167,0.11-0.334,0.22-0.499,0.333
	c-0.343,0.236-0.681,0.479-1.016,0.725c-0.122,0.09-0.247,0.177-0.368,0.268c-0.029,0.022-0.06,0.043-0.09,0.066
	c-0.046-0.157-0.098-0.311-0.145-0.466c-0.061-0.205-0.125-0.408-0.189-0.612c-0.118-0.371-0.244-0.738-0.373-1.103
	c-0.066-0.184-0.128-0.368-0.196-0.551c-0.17-0.456-0.348-0.909-0.535-1.357c-0.035-0.082-0.065-0.166-0.099-0.248
	c-0.224-0.529-0.461-1.05-0.708-1.566c-0.072-0.15-0.149-0.298-0.223-0.447c-0.181-0.365-0.365-0.729-0.557-1.087
	c-0.097-0.181-0.197-0.362-0.297-0.542c-0.181-0.327-0.367-0.651-0.558-0.972c-0.107-0.179-0.214-0.358-0.323-0.535
	c-0.206-0.333-0.417-0.662-0.633-0.988c-0.099-0.15-0.196-0.303-0.297-0.452c-0.317-0.467-0.643-0.928-0.981-1.381
	c-0.008-0.01-0.014-0.019-0.022-0.029c-0.334-0.446-0.678-0.883-1.031-1.313c-0.116-0.141-0.235-0.279-0.353-0.419
	c-0.249-0.296-0.501-0.589-0.758-0.877c-0.14-0.157-0.282-0.311-0.424-0.465c-0.25-0.27-0.504-0.538-0.762-0.801
	c-0.144-0.147-0.288-0.295-0.434-0.44c-0.285-0.283-0.577-0.559-0.87-0.831c-0.122-0.114-0.242-0.23-0.365-0.342
	c-0.417-0.378-0.843-0.749-1.277-1.109c-0.073-0.061-0.151-0.119-0.226-0.18c-0.364-0.297-0.732-0.589-1.107-0.873
	c-0.155-0.117-0.313-0.23-0.47-0.346c-0.304-0.223-0.61-0.442-0.921-0.657c-0.175-0.12-0.352-0.239-0.529-0.357
	c-0.309-0.206-0.622-0.406-0.937-0.602c-0.173-0.107-0.343-0.216-0.518-0.321c-0.367-0.221-0.74-0.434-1.115-0.643
	c-0.124-0.069-0.244-0.14-0.368-0.208c-0.5-0.27-1.005-0.531-1.518-0.78c-0.127-0.061-0.256-0.118-0.384-0.178
	c-0.391-0.185-0.782-0.364-1.18-0.535c-0.187-0.08-0.376-0.157-0.564-0.235c-0.348-0.144-0.7-0.284-1.054-0.417
	c-0.2-0.076-0.401-0.15-0.602-0.223c-0.361-0.129-0.726-0.253-1.092-0.371c-0.189-0.061-0.376-0.125-0.567-0.184
	c-0.462-0.141-0.928-0.274-1.397-0.398c-0.093-0.024-0.185-0.053-0.278-0.078c-0.563-0.145-1.131-0.276-1.703-0.395
	c-0.166-0.035-0.334-0.063-0.501-0.096c-0.412-0.08-0.825-0.156-1.241-0.223c-0.21-0.033-0.422-0.063-0.633-0.093
	c-0.384-0.055-0.769-0.105-1.156-0.148c-0.217-0.024-0.434-0.048-0.653-0.069c-0.407-0.038-0.816-0.068-1.227-0.093
	c-0.193-0.012-0.385-0.028-0.579-0.037C261.835,0.018,261.232,0,260.623,0c-0.609,0-1.212,0.018-1.813,0.046
	c-0.194,0.009-0.386,0.024-0.579,0.037c-0.411,0.026-0.819,0.056-1.227,0.093c-0.219,0.021-0.436,0.045-0.654,0.069
	c-0.386,0.043-0.771,0.092-1.154,0.147c-0.213,0.03-0.425,0.06-0.637,0.095c-0.414,0.067-0.825,0.141-1.234,0.221
	c-0.169,0.033-0.339,0.061-0.508,0.097c-0.571,0.119-1.138,0.249-1.699,0.394c-0.101,0.026-0.2,0.057-0.301,0.083
	c-0.461,0.122-0.919,0.253-1.373,0.392c-0.195,0.06-0.387,0.125-0.58,0.187c-0.361,0.117-0.719,0.238-1.075,0.365
	c-0.207,0.075-0.412,0.15-0.617,0.227c-0.347,0.131-0.691,0.268-1.034,0.41c-0.195,0.08-0.39,0.159-0.583,0.243
	c-0.385,0.166-0.765,0.341-1.143,0.519c-0.139,0.066-0.282,0.128-0.42,0.195c-0.508,0.247-1.01,0.504-1.504,0.772
	c-0.138,0.075-0.273,0.156-0.41,0.232c-0.361,0.201-0.718,0.405-1.072,0.618c-0.183,0.11-0.363,0.224-0.544,0.337
	c-0.305,0.19-0.607,0.384-0.906,0.582c-0.186,0.124-0.372,0.249-0.557,0.376c-0.297,0.205-0.59,0.415-0.882,0.629
	c-0.169,0.124-0.339,0.246-0.506,0.372c-0.352,0.266-0.697,0.54-1.038,0.818c-0.097,0.079-0.197,0.154-0.293,0.234
	c-0.427,0.355-0.847,0.72-1.259,1.093c-0.139,0.126-0.274,0.257-0.412,0.385c-0.277,0.258-0.552,0.519-0.821,0.786
	c-0.157,0.156-0.312,0.314-0.466,0.472c-0.246,0.252-0.489,0.506-0.728,0.765c-0.151,0.164-0.303,0.328-0.452,0.495
	c-0.245,0.274-0.484,0.553-0.721,0.835c-0.129,0.152-0.26,0.304-0.386,0.459c-0.325,0.397-0.642,0.801-0.951,1.212
	c-0.055,0.072-0.108,0.145-0.163,0.217c-0.309,0.417-0.61,0.841-0.903,1.271c-0.111,0.164-0.218,0.331-0.326,0.496
	c-0.205,0.312-0.407,0.624-0.603,0.942c-0.116,0.188-0.229,0.377-0.342,0.568c-0.184,0.308-0.362,0.62-0.536,0.935
	c-0.106,0.19-0.211,0.38-0.314,0.572c-0.185,0.346-0.362,0.697-0.536,1.048c-0.08,0.161-0.163,0.319-0.24,0.482
	c-0.245,0.512-0.479,1.028-0.701,1.552c-0.041,0.098-0.078,0.198-0.119,0.297c-0.179,0.433-0.353,0.869-0.516,1.31
	c-0.07,0.187-0.135,0.377-0.201,0.567c-0.128,0.362-0.252,0.725-0.37,1.09c-0.066,0.205-0.129,0.411-0.191,0.617
	c-0.047,0.156-0.099,0.308-0.144,0.465c-0.029-0.022-0.06-0.043-0.09-0.066c-0.121-0.091-0.246-0.178-0.368-0.268
	c-0.335-0.247-0.673-0.49-1.016-0.725c-0.165-0.112-0.331-0.223-0.496-0.333c-0.314-0.208-0.631-0.413-0.952-0.612
	c-0.174-0.108-0.346-0.215-0.522-0.321c-0.341-0.204-0.686-0.402-1.033-0.595c-0.151-0.085-0.302-0.173-0.455-0.255
	c-0.501-0.27-1.006-0.533-1.519-0.781c-0.031-0.016-0.063-0.029-0.095-0.043c-0.483-0.232-0.972-0.453-1.465-0.664
	c-0.168-0.072-0.339-0.14-0.509-0.209c-0.364-0.15-0.73-0.296-1.1-0.435c-0.195-0.073-0.391-0.145-0.587-0.215
	c-0.361-0.129-0.723-0.252-1.089-0.37c-0.193-0.062-0.384-0.126-0.577-0.185c-0.425-0.13-0.854-0.252-1.286-0.366
	c-0.13-0.035-0.258-0.073-0.39-0.108c-0.562-0.145-1.129-0.275-1.7-0.394c-0.142-0.03-0.287-0.053-0.431-0.081
	c-0.433-0.085-0.867-0.164-1.304-0.234c-0.204-0.032-0.41-0.06-0.614-0.09c-0.388-0.056-0.778-0.106-1.169-0.149
	c-0.215-0.023-0.429-0.047-0.644-0.068c-0.408-0.039-0.82-0.069-1.232-0.093c-0.19-0.012-0.38-0.027-0.57-0.036
	c-0.6-0.028-1.203-0.046-1.81-0.046c-21.08,0-38.231,17.187-38.231,38.312v119.371c-0.014-0.009-0.03-0.017-0.045-0.027
	c-0.697-0.446-1.43-0.875-2.187-1.291c-0.049-0.027-0.099-0.053-0.148-0.079c-2.313-1.259-4.912-2.36-7.826-3.247
	c-0.041-0.012-0.082-0.026-0.125-0.038c-1.89-0.57-3.91-1.05-6.076-1.42c-0.163-0.028-0.332-0.051-0.496-0.078
	c-0.858-0.139-1.739-0.259-2.641-0.364c-0.269-0.031-0.538-0.063-0.811-0.092c-1.083-0.11-2.187-0.204-3.335-0.262
	c-31.795-1.613-43.509,24.323-45.263,38.256c-0.043,0.346-0.066,0.693-0.066,1.043v164.985c0,2.282,0.934,4.464,2.584,6.039
	l66.433,63.395v59.173c0,4.611,3.736,8.348,8.348,8.348h94.1c4.611,0,8.348-3.736,8.348-8.348c0-4.611-3.736-8.348-8.348-8.348
	h-85.752v-46.716h161.811v46.716h-22.331c-4.611,0-8.348,3.736-8.348,8.348c0,4.611,3.736,8.348,8.348,8.348h30.679
	c4.611,0,8.348-3.736,8.348-8.348v-59.306l58.123-58.226c1.563-1.565,2.44-3.686,2.44-5.898v-52.905v-67.596V138.192
	C418.389,117.067,401.238,99.878,380.157,99.878z M346.667,431.893H178.621v-46.799c0-4.611-3.736-8.348-8.348-8.348
	s-8.348,3.736-8.348,8.348v35.641l-51.623-49.262V210.678c0.12-0.736,0.365-2.002,0.817-3.574
	c1.559-5.376,5.664-14.629,15.878-18.224c0.041-0.014,0.081-0.03,0.122-0.043c0.435-0.15,0.885-0.287,1.342-0.416
	c0.101-0.029,0.201-0.059,0.304-0.087c0.404-0.109,0.82-0.204,1.241-0.295c0.161-0.035,0.319-0.072,0.483-0.105
	c0.373-0.073,0.758-0.134,1.144-0.191c0.221-0.033,0.439-0.071,0.663-0.1c0.344-0.045,0.7-0.075,1.054-0.107
	c0.278-0.026,0.552-0.056,0.836-0.075c0.326-0.021,0.664-0.028,1-0.039c0.323-0.011,0.64-0.027,0.971-0.028
	c0.632-0.002,1.274,0.009,1.937,0.042c0.643,0.032,1.263,0.08,1.873,0.135c0.183,0.017,0.361,0.036,0.54,0.053
	c0.443,0.045,0.877,0.096,1.302,0.152c0.173,0.023,0.347,0.045,0.516,0.069c0.545,0.079,1.079,0.166,1.595,0.264
	c0.158,0.03,0.308,0.065,0.464,0.097c0.352,0.071,0.698,0.146,1.036,0.225c0.248,0.059,0.493,0.12,0.735,0.183
	c0.208,0.053,0.411,0.11,0.613,0.167c10.201,2.875,14.035,9.633,15.371,15.391c0.071,0.306,0.16,0.602,0.263,0.892
	c0.161,1.005,0.209,1.803,0.22,2.284v46.1c0,4.611,3.736,8.348,8.348,8.348s8.348-3.736,8.348-8.348v-46.1V58.289
	c0-11.92,9.661-21.616,21.535-21.616c11.875,0,21.536,9.697,21.536,21.616v149.058v7.683c0,4.611,3.736,8.348,8.348,8.348
	s8.348-3.736,8.348-8.348v-7.683V58.289V38.313c0-11.92,9.662-21.618,21.537-21.618c11.875,0,21.536,9.698,21.536,21.618v19.976
	v149.058v7.683c0,4.611,3.736,8.348,8.348,8.348c4.611,0,8.348-3.736,8.348-8.348v-7.683V58.289c0-11.92,9.661-21.616,21.536-21.616
	c11.874,0,21.535,9.697,21.535,21.616v79.903v76.838c0,4.611,3.736,8.348,8.348,8.348c4.611,0,8.348-3.736,8.348-8.348v-76.838
	c0-11.921,9.661-21.619,21.536-21.619s21.537,9.698,21.537,21.619v113.181H269.258c-4.611,0-8.348,3.736-8.348,8.348v67.596v73.353
	c0,3.378,2.036,6.423,5.157,7.715c1.033,0.426,2.115,0.633,3.189,0.633c2.175,0,4.313-0.85,5.91-2.45l70.778-70.903h55.75v41.105
	L346.667,431.893z M401.693,318.969h-59.212h-64.876v-50.901h124.088V318.969z M277.606,335.665h44.748l-44.748,44.827V335.665z"/>
</svg>